<svg xmlns="http://www.w3.org/2000/svg" viewBox="0 0 32 32" xml:space="preserve"><g stroke-width="0"/><g stroke-linecap="round" stroke-linejoin="round"/><g fill="#7956f5"><path d="M30.5 0h-29C.673 0 0 .673 0 1.5v8c0 .827.673 1.5 1.5 1.5h29c.827 0 1.5-.673 1.5-1.5v-8c0-.827-.673-1.5-1.5-1.5m.5 9.5c0 .275-.225.5-.5.5h-29a.5.5 0 0 1-.5-.5v-8c0-.275.225-.5.5-.5h29c.275 0 .5.225.5.5zm.5 3a.5.5 0 0 0-.5.5v17.5c0 .275-.225.5-.5.5h-29a.5.5 0 0 1-.5-.5V13a.5.5 0 0 0-1 0v17.5c0 .827.673 1.5 1.5 1.5h29c.827 0 1.5-.673 1.5-1.5V13a.5.5 0 0 0-.5-.5"/><path d="M13.5 27c.827 0 1.5-.673 1.5-1.5v-8c0-.827-.673-1.5-1.5-1.5h-8c-.827 0-1.5.673-1.5 1.5v8c0 .827.673 1.5 1.5 1.5zM5 25.5v-8c0-.275.225-.5.5-.5h8c.275 0 .5.225.5.5v8c0 .275-.225.5-.5.5h-8a.5.5 0 0 1-.5-.5M18 18h9a.5.5 0 0 0 0-1h-9a.5.5 0 0 0 0 1m0 4h9a.5.5 0 0 0 0-1h-9a.5.5 0 0 0 0 1m0 4h9a.5.5 0 0 0 0-1h-9a.5.5 0 0 0 0 1"/></g></svg>